#!OML:ASF H:\MichaelJackson\Top Level 1\Subject 1\Session 1\male.ASF
:FULLY-SPECIFIED
:DEGREES
600
root -6.86307 17.1779 29.0726 -363.463 10.7267 -6.98326
lowerback 9.00561 -2.34528 -2.03554
upperback 2.00153 -3.29096 0.237548
thorax -2.83625 -1.62059 1.7555
lowerneck -7.3342 -2.13195 3.47247
upperneck 5.2563 -3.41385 3.0159
head 2.96077 -1.50811 0.209387
rclavicle 1.19271e-015 6.36111e-015
rhumerus -56.9695 -9.73036 -47.3218
rradius 45.8791
rwrist 22.4926
rhand -9.24611 -17.1749
rfingers 7.12502
rthumb 16.7095 -46.4758
lclavicle 1.19271e-015 6.36111e-015
lhumerus -33.3661 -47.7309 99.6962
lradius 61.531
lwrist 13.6609
lhand 23.5615 23.2547
lfingers 7.12502
lthumb 47.8372 45.5431
rfemur -53.0438 3.12024 1.94188
rtibia 40.1285
rfoot 5.6534 11.2358
rtoes -12.2498
lfemur -17.3854 19.9622 -16.3464
ltibia 35.5168
lfoot -15.7631 -8.68322
ltoes 25.1211
601
root -6.88264 17.1852 29.0908 -363.314 11.0777 -7.14851
lowerback 9.17106 -2.55531 -1.96615
upperback 1.95258 -3.56444 0.315605
thorax -2.96592 -1.75442 1.83722
lowerneck -7.5099 -2.08088 3.47038
upperneck 5.15724 -3.34636 2.96127
head 2.95935 -1.47746 0.193482
rclavicle 5.36719e-014 -9.54166e-015
rhumerus -57.5705 -9.85421 -47.2953
rradius 46.1135
rwrist 23.4503
rhand -9.50789 -17.561
rfingers 7.12502
rthumb 16.4575 -46.8829
lclavicle 5.36719e-014 -9.54166e-015
lhumerus -34.173 -48.3027 101.317
lradius 61.0474
lwrist 13.7756
lhand 23.9315 23.531
lfingers 7.12502
lthumb 48.1784 45.6602
rfemur -53.8724 0.730476 3.74004
rtibia 36.7896
rfoot 5.0918 6.78815
rtoes -14.3877
lfemur -17.5703 20.3818 -16.2257
ltibia 35.3622
lfoot -15.7708 -9.15686
ltoes 24.8533
602
root -6.90538 17.1899 29.1059 -363.223 11.3633 -7.27875
lowerback 9.41916 -2.73249 -1.94149
upperback 1.93315 -3.79964 0.37983
thorax -3.1102 -1.86869 1.93051
lowerneck -7.67762 -2.0356 3.46351
upperneck 4.98289 -3.28399 2.92517
head 2.93112 -1.45071 0.184743
rclavicle -1.46107e-014 6.36111e-015
rhumerus -58.1694 -10.0236 -47.3376
rradius 46.4888
rwrist 23.8037
rhand -9.80446 -18.0203
rfingers 7.12502
rthumb 16.1719 -47.3657
lclavicle -1.46107e-014 6.36111e-015
lhumerus -34.9595 -48.9383 102.842
lradius 60.6448
lwrist 13.7936
lhand 24.3425 23.8046
lfingers 7.12502
lthumb 48.5568 45.7534
rfemur -55.1088 -2.46049 6.62451
rtibia 34.4034
rfoot 4.05739 3.7132
rtoes -16.8442
lfemur -17.7184 20.6306 -16.1095
ltibia 35.2854
lfoot -15.7875 -9.38912
ltoes 24.4474
603
root -6.93217 17.1909 29.1181 -363.228 11.6004 -7.37008
lowerback 9.77508 -2.88051 -1.97109
upperback 1.96375 -4.00309 0.423952
thorax -3.2608 -1.96673 2.03594
lowerneck -7.83295 -1.99791 3.45701
upperneck 4.71964 -3.22932 2.91266
head 2.87066 -1.4292 0.183897
rclavicle 2.0773e-014 -1.90833e-014
rhumerus -58.7301 -10.2636 -47.4584
rradius 46.9527
rwrist 23.5846
rhand -10.1516 -18.5652
rfingers 7.12502
rthumb 15.8377 -47.9374
lclavicle 2.0773e-014 -1.90833e-014
lhumerus -35.7036 -49.6289 104.248
lradius 60.3071
lwrist 13.69
lhand 24.8433 24.0447
lfingers 7.12502
lthumb 49.0172 45.7686
rfemur -56.9295 -6.32058 10.6351
rtibia 33.1734
rfoot 2.51568 2.50125
rtoes -19.841
lfemur -17.7953 20.6782 -15.9909
ltibia 35.2977
lfoot -15.8285 -9.34554
ltoes 23.9147
604
root -6.96329 17.1869 29.1287 -363.339 11.8109 -7.40941
lowerback 10.238 -3.00568 -2.06791
upperback 2.05272 -4.18542 0.439342
thorax -3.40727 -2.05386 2.15294
lowerneck -7.97399 -1.96626 3.45216
upperneck 4.37417 -3.18117 2.93368
head 2.78023 -1.41181 0.193933
rclavicle 3.70733e-014 4.77083e-015
rhumerus -59.2271 -10.5878 -47.6615
rradius 47.4706
rwrist 22.8384
rhand -10.5054 -19.1679
rfingers 7.12502
rthumb 15.4969 -48.5668
lclavicle 3.70733e-014 4.77083e-015
lhumerus -36.4029 -50.3437 105.519
lradius 60.0191
lwrist 13.4521
lhand 25.4324 24.1722
lfingers 7.12502
lthumb 49.5578 45.624
rfemur -59.4567 -10.5154 15.5748
rtibia 33.2067
rfoot 0.752505 3.1765
rtoes -23.0915
lfemur -17.7856 20.5163 -15.8825
ltibia 35.4052
lfoot -15.9046 -9.01263
ltoes 23.1089
605
root -6.99851 17.1773 29.139 -363.555 12.0109 -7.40332
lowerback 10.7891 -3.11479 -2.22631
upperback 2.20216 -4.35578 0.426561
thorax -3.53623 -2.13495 2.27887
lowerneck -8.09719 -1.93799 3.447
upperneck 3.95568 -3.13613 2.9953
head 2.66274 -1.39652 0.217529
rclavicle -2.92213e-014 1.27222e-014
rhumerus -59.6335 -10.9989 -47.9455
rradius 48.0046
rwrist 21.644
rhand -10.8336 -19.8109
rfingers 7.12502
rthumb 15.1808 -49.234
lclavicle -2.92213e-014 1.27222e-014
lhumerus -37.043 -51.0358 106.636
lradius 59.7655
lwrist 13.1214
lhand 26.1167 24.1868
lfingers 7.12502
lthumb 50.1844 45.3122
rfemur -62.629 -14.53 20.9799
rtibia 34.4782
rfoot -0.812599 5.24494
rtoes -25.8781
lfemur -17.6848 20.1697 -15.7825
ltibia 35.5956
lfoot -16.0092 -8.42376
ltoes 22.0531
606
root -7.03696 17.1631 29.1502 -363.856 12.217 -7.35577
lowerback 11.3896 -3.21308 -2.43703
upperback 2.40348 -4.52057 0.387197
thorax -3.6347 -2.2136 2.40881
lowerneck -8.20623 -1.91643 3.44611
upperneck 3.49502 -3.09948 3.08547
head 2.52926 -1.38565 0.249458
rclavicle 7.53394e-014 -3.18055e-015
rhumerus -59.9452 -11.4896 -48.3
rradius 48.5301
rwrist 20.0964
rhand -11.0911 -20.4795
rfingers 7.12502
rthumb 14.9328 -49.9212
lclavicle 7.53394e-014 -3.18055e-015
lhumerus -37.6219 -51.665 107.603
lradius 59.5259
lwrist 12.7706
lhand 26.8534 24.1065
lfingers 7.12502
lthumb 50.8571 44.8674
rfemur -66.1851 -17.9158 26.2402
rtibia 36.8445
rfoot -1.80012 7.9855
rtoes -27.6812
lfemur -17.5014 19.6839 -15.7012
ltibia 35.8416
lfoot -16.1387 -7.63901
ltoes 20.8197
607
root -7.07747 17.1464 29.1628 -364.211 12.4448 -7.26892
lowerback 11.9905 -3.30408 -2.69334
upperback 2.64291 -4.68352 0.325904
thorax -3.68942 -2.2922 2.54136
lowerneck -8.28572 -1.9048 3.4443
upperneck 3.00375 -3.0739 3.19782
head 2.38104 -1.38085 0.288482
rclavicle -1.36167e-014 -9.54166e-015
rhumerus -60.1726 -12.0434 -48.7124
rradius 49.052
rwrist 18.2515
rhand -11.2441 -21.1571
rfingers 7.12502
rthumb 14.7853 -50.6097
lclavicle -1.36167e-014 -9.54166e-015
lhumerus -38.1396 -52.1994 108.432
lradius 59.2843
lwrist 12.4908
lhand 27.5728 23.974
lfingers 7.12502
lthumb 51.5122 44.365
rfemur -69.7798 -20.4673 30.8254
rtibia 40.1072
rfoot -2.05322 10.7748
rtoes -28.4504
lfemur -17.2524 19.1125 -15.652
ltibia 36.1038
lfoot -16.2727 -6.74237
ltoes 19.4847
608
root -7.11913 17.1287 29.1775 -364.586 12.7105 -7.14793
lowerback 12.5516 -3.3894 -2.98215
upperback 2.90021 -4.84472 0.248543
thorax -3.69979 -2.37107 2.67299
lowerneck -8.32952 -1.90847 3.43345
upperneck 2.51044 -3.06604 3.32804
head 2.22678 -1.38514 0.334189
rclavicle 5.76476e-014 -1.43125e-014
rhumerus -60.3533 -12.645 -49.1605
rradius 49.5906
rwrist 16.1514
rhand -11.2735 -21.8249
rfingers 7.12502
rthumb 14.757 -51.2796
lclavicle 5.76476e-014 -1.43125e-014
lhumerus -38.6064 -52.6228 109.153
lradius 59.0246
lwrist 12.3638
lhand 28.2289 23.8685
lfingers 7.12502
lthumb 52.1078 43.9099
rfemur -73.139 -22.228 34.4457
rtibia 44.0613
rfoot -1.67034 13.2693
rtoes -28.3193
lfemur -16.9628 18.5151 -15.6414
ltibia 36.355
lfoot -16.4027 -5.82234
ltoes 18.0708
609
root -7.16123 17.112 29.1947 -364.952 13.0314 -7.00548
lowerback 13.039 -3.47117 -3.28707
upperback 3.15338 -5.00383 0.165181
thorax -3.67084 -2.45017 2.80302
lowerneck -8.31954 -1.93352 3.40316
upperneck 2.02961 -3.08221 3.47183
head 2.0683 -1.40179 0.386817
rclavicle 3.77691e-014 -6.36111e-015
rhumerus -60.5219 -13.2748 -49.6215
rradius 50.1524
rwrist 13.8186
rhand -11.2098 -22.4478
rfingers 7.12502
rthumb 14.8184 -51.898
lclavicle 3.77691e-014 -6.36111e-015
lhumerus -39.0345 -52.9328 109.812
lradius 58.721
lwrist 12.4538
lhand 28.7536 23.8573
lfingers 7.12502
lthumb 52.583 43.6102
rfemur -76.1516 -23.3843 37.091
rtibia 48.5295
rfoot -0.854387 15.3964
rtoes -27.6301
lfemur -16.6634 17.9511 -15.6626
ltibia 36.5793
lfoot -16.5205 -4.97691
ltoes 16.6476
610
root -7.20364 17.0957 29.2155 -365.282 13.4308 -6.85671
lowerback 13.4303 -3.55473 -3.59164
upperback 3.38217 -5.16442 0.0862037
thorax -3.61221 -2.53111 2.93239
lowerneck -8.26432 -1.98591 3.35287
upperneck 1.59417 -3.13154 3.61526
head 1.918 -1.43478 0.441444
rclavicle -4.57205e-015 -1.43125e-014
rhumerus -60.7132 -13.9256 -50.0677
rradius 50.7506
rwrist 11.2818
rhand -11.0639 -22.9972
rfingers 7.12502
rthumb 14.959 -52.4369
lclavicle -4.57205e-015 -1.43125e-014
lhumerus -39.4282 -53.1365 110.444
lradius 58.3528
lwrist 12.7791
lhand 29.157 24.0109
lfingers 7.12502
lthumb 52.9474 43.5365
rfemur -78.8051 -24.1442 38.8946
rtibia 53.353
rfoot 0.236225 17.2465
rtoes -26.5146
lfemur -16.3956 17.4675 -15.7019
ltibia 36.787
lfoot -16.6355 -4.29518
ltoes 15.2789
